<svg width="84" height="75" viewBox="0 0 84 75" fill="none" xmlns="http://www.w3.org/2000/svg">
<path d="M27.4927 61.0164C37.1268 44.0345 43.9712 35.2304 65.7171 24.2792" stroke="black" stroke-width="3"/>
<path d="M35.8009 38.763L42.5188 24.334C42.8598 23.6014 43.4147 22.9893 44.1104 22.5783L56.566 15.2199C57.4168 14.7173 58.4065 15.6145 57.9894 16.5104V16.5104C57.5744 17.4019 58.5535 18.2979 59.4048 17.8056L68.2983 12.6621C69.1326 12.1796 70.113 12.0146 71.0592 12.1973L78.2049 13.577C80.76 14.0704 82.1712 16.8336 81.0728 19.1928L75.3543 31.4755C75.0127 32.2091 74.4567 32.8218 73.7597 33.2328L70.432 35.195C69.9774 35.463 69.4199 35.4901 68.9414 35.2673V35.2673C67.5578 34.6232 66.1421 36.0942 66.8387 37.4521L66.9864 37.7398C67.4648 38.6725 67.0014 39.8124 66.0079 40.1465L43.4529 47.7328" stroke="black" stroke-width="3"/>
<path d="M0.0375977 30.3663H3.97833C4.57781 30.3663 5.11159 30.7457 5.30854 31.312V31.312C5.59343 32.131 6.54369 32.5004 7.30702 32.089L9.68001 30.8099C10.2202 30.5187 10.8243 30.3663 11.4379 30.3663H14.5395C15.3071 30.3663 16.0451 30.6628 16.5994 31.1939V31.1939C17.6197 32.1717 19.1869 32.2975 20.3501 31.4949L21.9859 30.3663" stroke="black" stroke-width="3"/>
<path d="M0.0372925 15.7371L2.10772 15.7357C2.57607 15.7354 2.97964 16.0652 3.07265 16.5242V16.5242C3.22521 17.277 4.14301 17.5723 4.70645 17.0499L5.63839 16.1857C5.9522 15.8947 6.36425 15.7329 6.79211 15.7326L8.32655 15.7316C8.85097 15.7313 9.33741 16.0047 9.60968 16.4527V16.4527C10.1425 17.3296 11.3787 17.4247 12.0401 16.6397L12.8078 15.7287" stroke="black" stroke-width="3"/>
<path d="M0.0375977 42.4512H3.97833C4.57781 42.4512 5.11159 42.8306 5.30854 43.3969V43.3969C5.59343 44.2159 6.54369 44.5853 7.30702 44.1739L8.83768 43.3488C9.84915 42.8036 11.0875 42.9095 11.9918 43.6184L12.6139 44.1062C13.3181 44.6583 14.1871 44.9584 15.0819 44.9584H17.106C17.9175 44.9584 18.7097 44.7116 19.3776 44.2507L21.9859 42.4512" stroke="black" stroke-width="3"/>
<path d="M0.0375977 54.5361H3.63201C4.2117 54.5361 4.72509 54.9104 4.9025 55.4622V55.4622C5.1635 56.2741 6.10866 56.6363 6.84534 56.2066L8.9422 54.9835C9.44458 54.6905 10.0157 54.5361 10.5973 54.5361H13.4122C14.1362 54.5361 14.829 54.8305 15.3316 55.3516V55.3516C16.264 56.3185 17.77 56.4409 18.8463 55.6373L20.3213 54.5361" stroke="black" stroke-width="3"/>
</svg>
