<svg width="198" height="60" viewBox="0 0 198 60" fill="none" xmlns="http://www.w3.org/2000/svg">
<g filter="url(#filter0_d_22_241)">
<path d="M120.662 22.0515C120.653 21.993 120.644 21.8996 120.634 21.7714C120.624 21.6432 120.618 21.5694 120.615 21.5499C120.687 20.7303 120.744 20.028 120.783 19.4432C120.832 18.8568 120.87 18.3619 120.898 17.9584C120.925 17.555 120.945 17.2326 120.958 16.9911C120.97 16.7497 120.977 16.5641 120.977 16.4344C120.975 16.2949 120.97 16.2008 120.963 16.1521C120.964 16.0921 120.962 16.0475 120.957 16.0183C120.948 15.9598 120.932 15.8574 120.91 15.7112C120.897 15.5635 120.869 15.4181 120.827 15.2749C120.784 15.122 120.724 14.9964 120.649 14.8982C120.583 14.7888 120.486 14.7439 120.359 14.7635C120.232 14.7831 120.132 14.8435 120.058 14.9448C119.992 15.0348 119.927 15.1297 119.862 15.2294C119.796 15.3195 119.719 15.4013 119.631 15.4748C119.552 15.5468 119.441 15.569 119.297 15.5414C119.37 15.1109 119.495 14.7922 119.673 14.5851C119.86 14.3765 120.158 14.2406 120.568 14.1774C120.812 14.1397 120.999 14.1606 121.131 14.24C121.272 14.3081 121.373 14.4171 121.436 14.567C121.508 14.7057 121.558 14.8725 121.589 15.0674C121.619 15.2624 121.65 15.4622 121.681 15.6668C121.738 16.0372 121.761 16.408 121.748 16.7791C121.746 17.1488 121.733 17.52 121.711 17.8926C121.689 18.2653 121.671 18.6372 121.659 19.0084C121.656 19.3781 121.683 19.7481 121.741 20.1185C121.744 20.1379 121.751 20.1867 121.763 20.2647C121.783 20.3314 121.795 20.3745 121.798 20.394L121.959 20.1745C122.582 18.9107 123.077 17.8861 123.445 17.1008C123.822 16.314 124.121 15.6989 124.342 15.2556C124.561 14.8026 124.738 14.4909 124.871 14.3206C125.004 14.1503 125.139 14.0546 125.276 14.0335C125.403 14.014 125.505 14.033 125.584 14.0907C125.673 14.1469 125.744 14.2207 125.798 14.3121C125.852 14.4036 125.893 14.507 125.921 14.6224C125.957 14.7266 125.982 14.8226 125.995 14.9103L126.696 19.4425L126.886 19.4131L130.788 10.8614C130.991 10.4309 131.225 10.1353 131.489 9.97466C131.752 9.80427 132.113 9.74854 132.571 9.80746L131.3 11.5606C130.676 12.9445 130.153 14.143 129.731 15.1563C129.317 16.1584 128.97 17.0153 128.691 17.727C128.42 18.4275 128.199 19.0006 128.028 19.4461C127.866 19.8803 127.725 20.2265 127.605 20.4845C127.484 20.7327 127.371 20.9098 127.268 21.0156C127.163 21.1116 127.033 21.1717 126.877 21.1958C126.614 21.2365 126.406 21.1837 126.254 21.0376C126.111 20.89 125.998 20.7079 125.915 20.4913C125.839 20.2634 125.783 20.0276 125.745 19.7839C125.717 19.5387 125.691 19.3382 125.667 19.1822C125.613 18.8314 125.564 18.5146 125.521 18.232C125.485 17.9381 125.45 17.649 125.416 17.3649C125.392 17.0792 125.367 16.7838 125.339 16.4786C125.32 16.1622 125.304 15.8005 125.291 15.3933C124.621 16.8642 124.067 18.0575 123.629 18.9733C123.202 19.8876 122.848 20.601 122.568 21.1133C122.288 21.6256 122.058 21.9804 121.879 22.1777C121.708 22.3638 121.54 22.4696 121.374 22.4952C121.111 22.5359 120.935 22.5233 120.845 22.4574C120.753 22.3817 120.692 22.2464 120.662 22.0515ZM130.396 20.1429C130.39 20.1039 130.378 20.0259 130.36 19.909C130.35 19.7808 130.342 19.6972 130.336 19.6582C130.538 18.8985 130.836 18.1788 131.23 17.4992C131.624 16.8196 132.092 16.1985 132.634 15.6357C132.653 15.6327 132.682 15.6233 132.719 15.6075C132.765 15.5805 132.798 15.5655 132.817 15.5625C133.08 15.5218 133.304 15.5472 133.487 15.6385C133.679 15.7186 133.838 15.8437 133.965 16.0138C134.099 16.1727 134.203 16.3612 134.276 16.5794C134.349 16.7878 134.4 16.9943 134.432 17.199C134.491 17.5791 134.465 17.9923 134.354 18.4385C134.242 18.8749 134.062 19.292 133.814 19.6895C133.574 20.0759 133.282 20.4105 132.936 20.6934C132.589 20.9666 132.211 21.1348 131.802 21.198C131.393 21.2613 131.069 21.2015 130.831 21.0188C130.602 20.8247 130.457 20.5328 130.396 20.1429ZM131.51 19.7912C131.526 19.8984 131.581 19.9648 131.675 19.9902C131.769 20.0156 131.86 20.0215 131.947 20.008C132.191 19.9703 132.415 19.8708 132.62 19.7095C132.832 19.5369 133.012 19.3396 133.157 19.1175C133.31 18.8842 133.422 18.6374 133.492 18.3772C133.561 18.117 133.579 17.8748 133.544 17.6506C133.527 17.5434 133.5 17.4279 133.46 17.3042C133.43 17.1693 133.382 17.0569 133.318 16.9669C133.253 16.8672 133.162 16.7965 133.046 16.7545C132.94 16.7111 132.797 16.7232 132.618 16.7908C132.486 16.8412 132.349 16.992 132.209 17.2432C132.068 17.4945 131.938 17.784 131.819 18.1118C131.708 18.4283 131.622 18.7459 131.562 19.0646C131.5 19.3736 131.482 19.6158 131.51 19.7912ZM138.555 18.9867C138.51 18.6943 138.527 18.4173 138.607 18.1555C138.694 17.8825 138.794 17.6226 138.905 17.3759C139.017 17.1291 139.114 16.8846 139.196 16.6424C139.288 16.3986 139.315 16.15 139.275 15.8966C139.266 15.8381 139.251 15.7707 139.229 15.6942C139.216 15.6065 139.193 15.5251 139.161 15.4502C139.14 15.3737 139.101 15.3149 139.044 15.2737C138.996 15.2212 138.938 15.2003 138.87 15.2108C138.86 15.2123 138.842 15.2202 138.814 15.2345C138.794 15.2375 138.785 15.2439 138.787 15.2536C138.679 15.4599 138.546 15.695 138.387 15.9591C138.236 16.2119 138.071 16.4669 137.891 16.7242C137.712 16.9815 137.535 17.2283 137.362 17.4647C137.189 17.701 137.03 17.9002 136.886 18.0622C136.785 18.1875 136.647 18.3586 136.471 18.5754C136.305 18.7907 136.134 19.0067 135.957 19.2236C135.79 19.4291 135.638 19.6122 135.503 19.7727C135.378 19.9318 135.306 20.0128 135.287 20.0158L134.526 19.5496C134.614 19.536 134.698 19.503 134.78 19.4504C134.852 19.3994 134.923 19.3435 134.994 19.2827C135.518 18.8025 135.975 18.2728 136.365 17.6937C136.764 17.113 137.147 16.4949 137.515 15.8393C137.53 15.8071 137.566 15.7167 137.623 15.5682C137.688 15.4084 137.756 15.2333 137.826 15.0428C137.895 14.8426 137.965 14.6472 138.035 14.4567C138.104 14.2564 138.154 14.0989 138.186 13.9842C138.225 13.8485 138.244 13.7409 138.241 13.6614C138.249 13.5804 138.254 13.5196 138.258 13.4792C138.27 13.4274 138.294 13.3888 138.33 13.3633C138.366 13.3377 138.447 13.3152 138.574 13.2956C138.594 13.2926 138.638 13.2907 138.708 13.2899C138.787 13.2876 138.838 13.2898 138.859 13.2965C139.026 13.5401 139.174 13.7567 139.303 13.9463C139.432 14.1359 139.545 14.3181 139.642 14.4927C139.738 14.6576 139.814 14.8304 139.872 15.011C139.94 15.1902 139.991 15.3919 140.025 15.616C139.948 15.9573 139.858 16.3105 139.755 16.6757C139.65 17.0312 139.568 17.3683 139.507 17.687C139.447 18.0057 139.421 18.2892 139.429 18.5374C139.447 18.784 139.531 18.9707 139.68 19.0973C139.838 19.2127 140.073 19.2511 140.387 19.2127C140.71 19.1727 141.15 19.0198 141.708 18.754C141.876 18.8079 141.906 18.9031 141.797 19.0396C141.687 19.1664 141.508 19.2989 141.26 19.437C141.021 19.5736 140.751 19.7002 140.45 19.8166C140.157 19.9218 139.906 19.9755 139.697 19.9779C139.511 20.0066 139.351 20.0014 139.215 19.9625C139.088 19.9124 138.977 19.8397 138.882 19.7446C138.797 19.6479 138.725 19.5343 138.665 19.4039C138.614 19.272 138.578 19.1329 138.555 18.9867ZM142.897 17.3428C142.804 17.5168 142.734 17.7073 142.686 17.9143C142.638 18.1213 142.579 18.32 142.509 18.5105C142.438 18.701 142.344 18.8653 142.225 19.0033C142.107 19.1414 141.936 19.2277 141.712 19.2624C141.526 19.291 141.395 19.2813 141.318 19.2334C141.239 19.1757 141.185 19.0494 141.155 18.8545C141.118 18.6206 141.142 18.3525 141.225 18.0502C141.318 17.7465 141.436 17.4487 141.581 17.157C141.724 16.8554 141.875 16.5727 142.033 16.3086C142.192 16.0446 142.324 15.8297 142.428 15.6639L144.229 9.39795C144.271 9.22172 144.369 9.04694 144.522 8.87363C144.685 8.69881 144.863 8.59634 145.058 8.56621L145.133 9.04867L144.137 12.87L144.191 13.2209C144.357 13.1953 144.509 13.1468 144.647 13.0755C144.785 12.9944 144.921 12.9085 145.057 12.8177C145.192 12.7268 145.334 12.645 145.483 12.5722C145.639 12.4881 145.815 12.431 146.01 12.4009C146.204 12.4907 146.319 12.6226 146.356 12.7965C146.391 12.9607 146.376 13.1527 146.31 13.3724C146.243 13.5824 146.137 13.8033 145.993 14.0351C145.859 14.2654 145.715 14.4923 145.56 14.7158C145.403 14.9297 145.248 15.1232 145.095 15.2965C144.952 15.4683 144.843 15.6 144.767 15.6915C144.639 15.8311 144.516 15.935 144.396 16.0033C144.285 16.0604 144.189 16.1152 144.107 16.1677C144.026 16.2203 143.967 16.2893 143.93 16.3748C143.903 16.4588 143.904 16.5934 143.932 16.7786C143.975 17.0515 144.082 17.2644 144.256 17.4172C144.427 17.5603 144.638 17.6625 144.887 17.7238C145.145 17.7836 145.424 17.8104 145.722 17.8042C146.029 17.7868 146.334 17.7547 146.636 17.708C146.938 17.6613 147.224 17.6071 147.494 17.5454C147.762 17.474 147.992 17.4086 148.182 17.3493L148.384 17.4976C148.3 17.6604 148.156 17.8273 147.953 17.9984C147.758 18.1582 147.537 18.3121 147.291 18.46C147.052 18.5966 146.812 18.7186 146.569 18.826C146.325 18.9237 146.12 18.9853 145.954 19.0109C145.642 19.0591 145.332 19.0571 145.025 19.0048C144.716 18.9428 144.425 18.838 144.153 18.6905C143.881 18.5429 143.632 18.3568 143.408 18.132C143.192 17.8959 143.022 17.6329 142.897 17.3428ZM145.269 13.6082C145.181 13.6218 145.055 13.6762 144.89 13.7715C144.725 13.8669 144.563 13.9817 144.404 14.116C144.245 14.2504 144.112 14.3907 144.005 14.537C143.898 14.6832 143.854 14.8197 143.874 14.9464L143.89 15.0488C143.953 15.009 144.063 14.9422 144.218 14.8484C144.383 14.753 144.545 14.6431 144.706 14.5185C144.874 14.3827 145.016 14.236 145.132 14.0784C145.247 13.9209 145.293 13.7641 145.269 13.6082ZM147.954 17.7138C147.933 17.5774 147.929 17.4582 147.944 17.3562C147.956 17.2445 147.989 17.0997 148.041 16.922C148.094 16.814 148.187 16.61 148.321 16.3099C148.464 16.0084 148.609 15.6915 148.758 15.3592C148.916 15.0255 149.062 14.7135 149.197 14.4232C149.34 14.1217 149.437 13.912 149.489 13.7943C149.557 13.654 149.615 13.5752 149.662 13.558C149.709 13.5407 149.801 13.5215 149.937 13.5004C150.025 13.4868 150.118 13.4774 150.217 13.4721C150.326 13.4653 150.405 13.523 150.454 13.6451C150.368 13.9976 150.232 14.343 150.045 14.6813C149.866 15.0083 149.687 15.3354 149.508 15.6624C149.339 15.9879 149.195 16.3195 149.078 16.657C148.959 16.9847 148.926 17.324 148.981 17.6749C149.02 17.6689 149.079 17.6647 149.158 17.6624C149.248 17.6586 149.342 17.654 149.441 17.6487C149.54 17.6434 149.629 17.6396 149.708 17.6373C149.798 17.6335 149.861 17.6237 149.898 17.6079C149.955 17.5891 150.05 17.5546 150.182 17.5042C150.322 17.4427 150.467 17.3803 150.617 17.3172C150.777 17.2526 150.927 17.1896 151.067 17.128C151.207 17.0664 151.305 17.0213 151.36 16.9928C151.363 17.0123 151.368 17.0464 151.376 17.0952C151.392 17.1326 151.401 17.1611 151.404 17.1806C151.434 17.3755 151.367 17.5507 151.201 17.706C151.045 17.8598 150.851 17.9945 150.62 18.1102C150.396 18.2145 150.16 18.3009 149.911 18.3693C149.671 18.4265 149.482 18.4656 149.346 18.4867C149.199 18.5093 149.046 18.518 148.886 18.5129C148.733 18.4965 148.593 18.4583 148.464 18.3984C148.335 18.3386 148.222 18.2561 148.126 18.1512C148.038 18.0351 147.981 17.8893 147.954 17.7138ZM150.884 8.48912C151.011 8.46954 151.129 8.45633 151.237 8.44951C151.346 8.44269 151.442 8.45274 151.526 8.47968C151.61 8.50662 151.683 8.5553 151.744 8.62574C151.804 8.69619 151.845 8.79963 151.866 8.93608C151.875 8.99456 151.885 9.05792 151.896 9.12614C151.906 9.19437 151.907 9.2641 151.898 9.33534C151.897 9.39532 151.881 9.4527 151.85 9.50745C151.817 9.55247 151.757 9.58175 151.669 9.59531C151.532 9.61639 151.413 9.58498 151.31 9.50107C151.217 9.41566 151.141 9.31261 151.083 9.19193C151.023 9.06151 150.977 8.92882 150.946 8.79387C150.915 8.65893 150.895 8.55734 150.884 8.48912ZM151.756 17.4256C151.743 17.3378 151.732 17.2696 151.725 17.2209C151.717 17.1721 151.715 17.1275 151.719 17.087C151.731 17.0353 151.748 16.9828 151.77 16.9295C151.791 16.8763 151.82 16.8069 151.857 16.7214C151.914 16.5729 152.023 16.3115 152.185 15.9373C152.347 15.563 152.52 15.167 152.705 14.7492C152.89 14.3314 153.063 13.9354 153.225 13.5611C153.396 13.1854 153.515 12.9225 153.582 12.7725C153.59 12.7612 153.614 12.7526 153.653 12.7465C153.702 12.739 153.736 12.7337 153.755 12.7307C153.775 12.7277 153.809 12.7224 153.857 12.7149C153.906 12.7074 153.936 12.7077 153.947 12.716C153.959 12.7242 153.982 12.7456 154.017 12.78C154.062 12.813 154.108 12.8508 154.155 12.8935C154.209 12.925 154.254 12.958 154.29 12.9924C154.335 13.0254 154.367 13.0404 154.386 13.0373C154.474 13.0238 154.562 12.9802 154.651 12.9067C154.739 12.8332 154.827 12.7547 154.914 12.6714C155.009 12.5769 155.105 12.4921 155.204 12.4171C155.302 12.342 155.409 12.2955 155.526 12.2774C155.653 12.2578 155.774 12.269 155.891 12.3109C156.007 12.3528 156.111 12.4116 156.202 12.4872C156.294 12.5629 156.367 12.6513 156.423 12.7525C156.488 12.8522 156.529 12.9556 156.546 13.0629C156.58 13.287 156.579 13.5067 156.543 13.7219C156.516 13.9357 156.479 14.1509 156.433 14.3676C156.385 14.5746 156.343 14.7857 156.306 15.0009C156.278 15.2049 156.28 15.4141 156.314 15.6285C156.347 15.8429 156.395 15.9951 156.459 16.085C156.521 16.1652 156.665 16.188 156.889 16.1534C157.152 16.1127 157.394 16.0353 157.616 15.9212C157.848 15.8055 158.09 15.7281 158.344 15.689C158.38 15.9229 158.337 16.1291 158.215 16.3077C158.103 16.4847 157.947 16.6385 157.747 16.7691C157.556 16.8885 157.342 16.9865 157.104 17.0631C156.875 17.1285 156.663 17.1763 156.468 17.2064C156.097 17.2636 155.809 17.2035 155.602 17.0259C155.403 16.8371 155.276 16.5672 155.222 16.2164C155.186 15.9824 155.191 15.7571 155.237 15.5404C155.293 15.3222 155.355 15.108 155.422 14.898C155.499 14.6865 155.567 14.4766 155.624 14.2681C155.682 14.0596 155.693 13.8432 155.659 13.6191C155.65 13.5606 155.628 13.4841 155.593 13.3897C155.559 13.2952 155.488 13.2563 155.381 13.2729C155.059 13.3226 154.783 13.4701 154.551 13.7154C154.329 13.9593 154.135 14.2537 153.969 14.5987C153.813 14.9423 153.674 15.3079 153.555 15.6956C153.445 16.0819 153.336 16.443 153.228 16.779C153.13 17.1134 153.029 17.3936 152.924 17.6193C152.819 17.8451 152.694 17.9693 152.547 17.9919C152.343 18.0235 152.167 17.9858 152.021 17.8786C151.875 17.7715 151.786 17.6205 151.756 17.4256ZM156.625 25.2953C156.539 24.7397 156.56 24.2276 156.687 23.7589C156.804 23.2917 156.99 22.8439 157.243 22.4156C157.497 21.997 157.8 21.596 158.15 21.2126C158.501 20.839 158.863 20.4687 159.235 20.1018C159.609 19.7446 159.973 19.3841 160.326 19.0202C160.678 18.6563 160.985 18.2797 161.244 17.8903C161.503 17.501 161.694 17.0922 161.818 16.664C161.951 16.2342 161.98 15.7757 161.904 15.2884C161.901 15.2689 161.895 15.225 161.884 15.1568C161.872 15.0788 161.86 15.0309 161.847 15.0129C161.788 15.0819 161.67 15.1899 161.493 15.337C161.314 15.4744 161.123 15.6237 160.918 15.7851C160.722 15.9352 160.529 16.0748 160.339 16.2039C160.15 16.333 160.013 16.4189 159.93 16.4617C159.92 16.4632 159.882 16.4741 159.815 16.4944C159.759 16.5132 159.687 16.5342 159.601 16.5575C159.524 16.5793 159.448 16.6011 159.371 16.6229C159.293 16.635 159.23 16.6448 159.181 16.6523C158.731 16.6421 158.415 16.5362 158.234 16.3346C158.052 16.1233 157.97 15.8564 157.991 15.534C158.011 15.2116 158.11 14.8568 158.29 14.4698C158.478 14.0715 158.713 13.686 158.995 13.3131C159.284 12.929 159.605 12.5801 159.955 12.2665C160.314 11.9416 160.671 11.6969 161.025 11.5324C161.387 11.3567 161.729 11.2789 162.051 11.2989C162.382 11.3077 162.66 11.4593 162.885 11.7538C163.007 12.1542 163.066 12.5391 163.063 12.9088C163.059 13.2687 163.035 13.6268 162.99 13.983C162.945 14.3392 162.901 14.7002 162.858 15.0662C162.813 15.4224 162.813 15.8066 162.857 16.219L162.988 16.1987C163.038 16.1312 163.119 16.0137 163.233 15.8465C163.357 15.6777 163.484 15.5033 163.616 15.3232C163.756 15.1319 163.889 14.9567 164.014 14.7977C164.138 14.6289 164.224 14.5107 164.274 14.4432C164.298 14.4095 164.351 14.3614 164.431 14.2992C164.521 14.2354 164.585 14.2004 164.624 14.1944L164.631 14.2383L164.636 14.2675C164.637 14.2773 164.643 14.2814 164.653 14.2799C164.707 14.6308 164.654 14.9682 164.495 15.2922C164.345 15.6148 164.148 15.9246 163.905 16.2217C163.661 16.5188 163.405 16.7979 163.136 17.059C162.869 17.3298 162.648 17.5834 162.475 17.8197C162.362 18.1865 162.247 18.6383 162.131 19.1753C162.016 19.722 161.886 20.3009 161.741 20.9121C161.597 21.5331 161.425 22.1634 161.225 22.8031C161.035 23.4511 160.8 24.0563 160.517 24.6189C160.245 25.18 159.922 25.6739 159.549 26.1008C159.177 26.5375 158.736 26.8501 158.227 27.0386C157.973 27.0778 157.754 27.0468 157.569 26.9457C157.374 26.8461 157.212 26.7064 157.085 26.5265C156.959 26.3564 156.858 26.1574 156.783 25.9295C156.709 25.7114 156.657 25.5 156.625 25.2953ZM157.522 25.965C157.628 26.1381 157.738 26.2359 157.852 26.2583C157.965 26.2807 158.09 26.2814 158.226 26.2603C158.48 26.2212 158.737 26.0466 158.999 25.7368C159.26 25.4269 159.509 25.0391 159.747 24.5733C159.995 24.1158 160.222 23.6117 160.426 23.0612C160.631 22.5107 160.803 21.9801 160.944 21.4694C161.094 20.9572 161.202 20.4915 161.267 20.0723C161.343 19.6613 161.366 19.3584 161.336 19.1634C161.333 19.1439 161.323 19.1106 161.305 19.0634C161.299 19.0244 161.295 18.9951 161.292 18.9756C161.265 18.9997 161.202 19.0394 161.101 19.095C161.011 19.1588 160.957 19.2019 160.941 19.2244C160.578 19.5899 160.167 19.9928 159.706 20.4332C159.256 20.8819 158.846 21.3595 158.475 21.8659C158.095 22.3737 157.792 22.9044 157.569 23.458C157.346 24.0212 157.281 24.6001 157.373 25.1947C157.377 25.2239 157.386 25.2775 157.398 25.3555C157.41 25.4335 157.427 25.5107 157.449 25.5871C157.461 25.6651 157.477 25.7375 157.497 25.8042C157.509 25.8822 157.517 25.9358 157.522 25.965ZM161.976 12.0739C161.82 12.098 161.624 12.1832 161.387 12.3296C161.149 12.4662 160.897 12.6449 160.632 12.8655C160.376 13.0846 160.12 13.3288 159.862 13.5982C159.604 13.8676 159.372 14.1429 159.166 14.4242C158.97 14.704 158.818 14.9771 158.709 15.2433C158.6 15.5096 158.562 15.7451 158.594 15.9497C158.798 15.9181 159.041 15.8407 159.321 15.7175C159.6 15.5846 159.885 15.4259 160.176 15.2412C160.475 15.0453 160.766 14.8307 161.049 14.5973C161.331 14.3541 161.577 14.1065 161.788 13.8544C162.008 13.6009 162.179 13.3499 162.3 13.1017C162.421 12.8534 162.465 12.622 162.432 12.4076C162.391 12.1445 162.24 12.0332 161.976 12.0739ZM169.462 20.1229C170.008 20.0385 170.481 19.8058 170.881 19.4246C171.282 19.0434 171.626 18.591 171.914 18.0675C172.204 17.5536 172.44 17.0132 172.622 16.4463C172.805 15.889 172.947 15.388 173.048 14.9433C173.089 14.7574 173.14 14.505 173.2 14.1863C173.259 13.8578 173.315 13.5399 173.367 13.2324C173.428 12.9137 173.474 12.6321 173.506 12.3877C173.548 12.1417 173.566 11.9992 173.56 11.9602L173.551 11.9017C173.364 11.7909 173.191 11.7678 173.031 11.8324C172.87 11.8872 172.717 11.9608 172.571 12.0531C172.434 12.1342 172.304 12.1943 172.18 12.2334C172.055 12.2627 171.929 12.1923 171.803 12.0222C171.777 11.8565 171.801 11.7181 171.874 11.6071C171.946 11.4961 172.046 11.4008 172.174 11.3212C172.301 11.2416 172.445 11.1744 172.607 11.1196C172.768 11.0647 172.923 11.0058 173.073 10.9427C173.223 10.8796 173.356 10.8042 173.472 10.7163C173.589 10.6285 173.666 10.5168 173.705 10.381L174.684 6.74187C174.769 6.44939 174.905 6.16886 175.093 5.9003C175.28 5.62199 175.501 5.37815 175.759 5.16877C176.016 4.9594 176.293 4.78188 176.589 4.63621C176.886 4.49055 177.181 4.39512 177.473 4.34993C177.892 4.28516 178.197 4.35281 178.388 4.55288C178.578 4.75295 178.708 5.07715 178.778 5.52549C178.791 5.61321 178.774 5.73057 178.727 5.87757C178.69 6.02306 178.632 6.16668 178.554 6.30845C178.476 6.45022 178.386 6.574 178.282 6.6798C178.179 6.78559 178.074 6.84677 177.966 6.86334C177.947 6.73664 177.953 6.61591 177.985 6.50117C178.016 6.37668 178.047 6.25706 178.079 6.14232C178.121 6.02607 178.158 5.91057 178.191 5.79583C178.221 5.67134 178.226 5.54087 178.205 5.40442C178.181 5.24847 178.146 5.11915 178.1 5.01646C178.054 4.91377 177.924 4.87899 177.71 4.91213C177.427 4.95581 177.151 5.07334 176.881 5.26473C176.62 5.44487 176.371 5.67785 176.136 5.96369C175.909 6.23828 175.698 6.55035 175.502 6.8999C175.315 7.23819 175.158 7.58171 175.033 7.93046C174.917 8.27771 174.83 8.62043 174.772 8.95864C174.723 9.28559 174.718 9.57577 174.757 9.82918C174.76 9.84868 174.766 9.88279 174.773 9.93152C174.789 9.969 174.798 9.99749 174.801 10.017C174.977 9.92988 175.176 9.82927 175.398 9.71515C175.63 9.59952 175.868 9.49288 176.112 9.39524C176.365 9.28634 176.615 9.19282 176.862 9.11467C177.118 9.02526 177.363 8.96249 177.597 8.92634C177.621 9.08228 177.565 9.23566 177.428 9.38646C177.292 9.53727 177.11 9.68511 176.883 9.82998C176.666 9.97334 176.418 10.1163 176.141 10.259C175.873 10.4002 175.62 10.539 175.382 10.6757C175.142 10.8026 174.933 10.9347 174.755 11.072C174.585 11.1981 174.484 11.3185 174.451 11.4332C174.448 11.7332 174.403 12.1542 174.317 12.6964C174.241 13.2371 174.123 13.8291 173.963 14.4726C173.803 15.116 173.606 15.7753 173.371 16.4502C173.145 17.1237 172.882 17.7433 172.58 18.3088C172.269 18.8759 171.928 19.3526 171.559 19.739C171.18 20.127 170.766 20.3556 170.317 20.4249C170.259 20.4339 170.185 20.4403 170.096 20.4441C169.997 20.4494 169.906 20.4435 169.824 20.4263C169.731 20.4106 169.652 20.3781 169.584 20.3286C169.517 20.2792 169.476 20.2106 169.462 20.1229ZM178.934 12.6415C178.928 12.6025 178.916 12.5245 178.898 12.4076C178.888 12.2794 178.88 12.1958 178.874 12.1568C179.076 11.3971 179.374 10.6774 179.768 9.99783C180.162 9.31823 180.63 8.69707 181.172 8.13433C181.191 8.13132 181.22 8.12193 181.257 8.10616C181.303 8.07913 181.335 8.06411 181.355 8.0611C181.618 8.02043 181.841 8.04577 182.025 8.13712C182.217 8.21722 182.376 8.34233 182.502 8.51245C182.637 8.67132 182.741 8.85983 182.814 9.07797C182.886 9.28637 182.938 9.49291 182.97 9.69759C183.029 10.0777 183.003 10.4909 182.892 10.9371C182.78 11.3736 182.6 11.7906 182.352 12.1881C182.112 12.5745 181.82 12.9091 181.474 13.192C181.127 13.4652 180.749 13.6334 180.34 13.6967C179.93 13.7599 179.607 13.7002 179.369 13.5174C179.139 13.3233 178.994 13.0314 178.934 12.6415ZM180.047 12.2898C180.064 12.397 180.119 12.4634 180.213 12.4888C180.307 12.5142 180.397 12.5202 180.485 12.5066C180.729 12.4689 180.953 12.3694 181.158 12.2081C181.37 12.0355 181.549 11.8382 181.695 11.6161C181.848 11.3828 181.96 11.1361 182.029 10.8758C182.099 10.6156 182.116 10.3734 182.082 10.1492C182.065 10.042 182.037 9.92655 181.998 9.80285C181.967 9.66791 181.92 9.55547 181.856 9.46553C181.791 9.36585 181.7 9.29506 181.584 9.25315C181.478 9.20973 181.335 9.22183 181.156 9.28943C181.024 9.33976 180.887 9.49057 180.746 9.74185C180.606 9.99314 180.476 10.2827 180.357 10.6104C180.246 10.9269 180.16 11.2445 180.1 11.5632C180.038 11.8722 180.02 12.1144 180.047 12.2898ZM187.093 11.4853C187.048 11.1929 187.065 10.9159 187.144 10.6541C187.232 10.3811 187.332 10.1212 187.443 9.87448C187.555 9.62772 187.652 9.38321 187.734 9.14096C187.826 8.89721 187.852 8.64863 187.813 8.39522C187.804 8.33674 187.789 8.26927 187.767 8.1928C187.753 8.10508 187.731 8.02374 187.699 7.94878C187.678 7.87232 187.639 7.81348 187.582 7.77228C187.534 7.71983 187.476 7.69887 187.408 7.70942C187.398 7.71092 187.379 7.71881 187.352 7.73307C187.332 7.73609 187.323 7.74247 187.325 7.75221C187.217 7.95849 187.084 8.19364 186.925 8.45769C186.774 8.71048 186.609 8.96553 186.429 9.22284C186.25 9.48015 186.073 9.72696 185.9 9.96327C185.727 10.1996 185.568 10.3988 185.424 10.5608C185.323 10.6861 185.185 10.8572 185.009 11.074C184.843 11.2893 184.671 11.5054 184.495 11.7222C184.328 11.9277 184.176 12.1108 184.041 12.2713C183.916 12.4304 183.844 12.5114 183.824 12.5144L183.064 12.0482C183.152 12.0346 183.236 12.0016 183.318 11.949C183.39 11.898 183.461 11.8421 183.532 11.7813C184.056 11.3011 184.513 10.7714 184.903 10.1923C185.302 9.61164 185.685 8.99353 186.053 8.33794C186.068 8.30569 186.104 8.21531 186.161 8.06681C186.226 7.90705 186.294 7.73192 186.364 7.54142C186.433 7.34118 186.502 7.1458 186.573 6.9553C186.642 6.75505 186.692 6.59756 186.724 6.48281C186.763 6.34707 186.782 6.23946 186.779 6.15998C186.787 6.079 186.792 6.01826 186.796 5.97776C186.808 5.92602 186.832 5.88739 186.868 5.86187C186.904 5.83635 186.985 5.8138 187.112 5.79422C187.131 5.79121 187.176 5.7893 187.246 5.7885C187.325 5.7862 187.375 5.78841 187.396 5.79515C187.564 6.03872 187.712 6.25532 187.841 6.44493C187.97 6.63455 188.083 6.81668 188.18 6.99132C188.275 7.15621 188.352 7.32899 188.41 7.50965C188.477 7.68881 188.529 7.89048 188.563 8.11465C188.486 8.45587 188.396 8.80909 188.293 9.17432C188.188 9.52981 188.106 9.86691 188.045 10.1856C187.985 10.5043 187.958 10.7878 187.967 11.036C187.985 11.2826 188.069 11.4693 188.218 11.5959C188.376 11.7113 188.611 11.7497 188.924 11.7113C189.248 11.6713 189.688 11.5184 190.246 11.2526C190.414 11.3065 190.443 11.4017 190.335 11.5382C190.225 11.665 190.046 11.7975 189.797 11.9356C189.559 12.0722 189.289 12.1988 188.988 12.3152C188.695 12.4204 188.444 12.4742 188.234 12.4765C188.049 12.5052 187.889 12.5 187.753 12.4611C187.626 12.411 187.515 12.3383 187.42 12.2432C187.335 12.1465 187.263 12.0329 187.203 11.9025C187.152 11.7706 187.116 11.6315 187.093 11.4853ZM121.823 38.3765C122.056 37.8215 122.347 37.3126 122.695 36.8497C123.044 36.3966 123.406 35.9614 123.78 35.5443C124.165 35.1256 124.546 34.7175 124.923 34.3198C125.301 33.9221 125.641 33.5054 125.943 33.0695C126.254 32.6322 126.506 32.1641 126.698 31.6654C126.889 31.1569 126.986 30.5881 126.989 29.959C126.986 29.9395 126.976 29.911 126.96 29.8735C126.953 29.8248 126.948 29.7907 126.945 29.7712C126.761 30.069 126.534 30.4084 126.264 30.7895C126.003 31.1691 125.71 31.5337 125.385 31.8833C125.07 32.2315 124.727 32.5339 124.358 32.7906C123.988 33.0472 123.613 33.205 123.233 33.2637C123.136 33.2788 123.008 33.2935 122.851 33.3078C122.702 33.3109 122.55 33.2994 122.396 33.2733C122.243 33.2471 122.105 33.1985 121.985 33.1273C121.864 33.0562 121.792 32.9475 121.77 32.8013C121.75 32.6746 121.754 32.4744 121.782 32.2007C121.809 31.927 121.857 31.6203 121.924 31.2806C121.991 30.9409 122.072 30.594 122.167 30.2401C122.262 29.8861 122.371 29.5598 122.495 29.2613C122.618 28.9628 122.745 28.7138 122.873 28.5143C123.012 28.3132 123.149 28.2021 123.286 28.1811C123.422 28.16 123.544 28.1711 123.65 28.2145C123.757 28.258 123.821 28.3479 123.842 28.4844C123.879 28.728 123.829 28.9852 123.692 29.256C123.554 29.5268 123.404 29.8193 123.243 30.1336C123.081 30.4381 122.937 30.7648 122.811 31.1135C122.685 31.4623 122.654 31.8413 122.717 32.2507C123.361 32.1513 123.92 31.9301 124.396 31.5871C124.871 31.2343 125.286 30.8258 125.644 30.3614C126.001 29.897 126.304 29.4061 126.554 28.8885C126.803 28.371 127.019 27.8936 127.201 27.4563C127.392 27.0175 127.555 26.653 127.69 26.3627C127.833 26.0612 127.968 25.9007 128.095 25.8811C128.28 25.8525 128.396 25.8944 128.444 26.0068C128.499 26.108 128.54 26.2414 128.565 26.4071C128.524 26.7228 128.457 27.0974 128.365 27.5309C128.271 27.9546 128.175 28.4034 128.079 28.8774C127.991 29.34 127.912 29.8012 127.844 30.2609C127.785 30.7191 127.764 31.1315 127.78 31.4982C127.782 31.5079 127.784 31.5225 127.787 31.542C127.8 31.56 127.807 31.5739 127.809 31.5836C127.975 31.498 128.125 31.3701 128.258 31.1998C128.391 31.0295 128.52 30.8599 128.644 30.6911C128.775 30.5111 128.91 30.3505 129.048 30.2095C129.185 30.0587 129.336 29.9705 129.501 29.9449C129.511 29.9434 129.556 30.0063 129.635 30.1337C129.725 30.2596 129.75 30.4253 129.712 30.6308C129.635 30.7126 129.492 30.8544 129.284 31.0562C129.085 31.2566 128.874 31.4689 128.649 31.6933C128.422 31.9079 128.211 32.1202 128.014 32.3303C127.815 32.5306 127.679 32.6814 127.605 32.7827C127.489 32.9403 127.378 33.157 127.271 33.433C127.164 33.709 127.061 34.0143 126.964 34.3488C126.867 34.693 126.773 35.0518 126.681 35.4253C126.599 35.7973 126.515 36.1595 126.43 36.512C126.346 36.8742 126.258 37.2072 126.165 37.5109C126.083 37.8229 126.003 38.0797 125.925 38.2815C125.888 38.367 125.809 38.5339 125.688 38.7822C125.578 39.0387 125.45 39.3128 125.306 39.6046C125.171 39.8949 125.034 40.1705 124.895 40.4315C124.767 40.7008 124.666 40.891 124.594 41.002C124.562 41.0567 124.472 41.1854 124.324 41.388C124.177 41.6003 124.008 41.8309 123.817 42.08C123.638 42.3373 123.457 42.5898 123.276 42.8373C123.085 43.0864 122.939 43.2736 122.839 43.3988C122.732 43.4852 122.589 43.5921 122.409 43.7197C122.231 43.857 122.045 43.9756 121.85 44.0755C121.647 44.1768 121.449 44.2523 121.257 44.302C121.055 44.3531 120.883 44.3348 120.739 44.2472C120.598 44.1693 120.498 44.0101 120.441 43.7694C120.376 43.54 120.377 43.1955 120.446 42.7358C120.506 42.2873 120.646 41.7069 120.865 40.9944C121.085 40.2819 121.404 39.4093 121.823 38.3765ZM125.928 34.5238C125.908 34.5268 125.875 34.537 125.828 34.5542C125.792 34.5798 125.765 34.5989 125.747 34.6117C125.73 34.6342 125.692 34.6751 125.631 34.7343C125.57 34.7936 125.501 34.8593 125.422 34.9313C125.353 35.0018 125.284 35.0724 125.215 35.1429C125.156 35.2119 125.114 35.2633 125.089 35.2971C124.846 35.5342 124.577 35.8553 124.28 36.2604C123.985 36.6752 123.68 37.1264 123.367 37.614C123.064 38.1099 122.769 38.6245 122.483 39.1578C122.197 39.7008 121.947 40.2135 121.732 40.6958C121.509 41.1893 121.339 41.6348 121.22 42.0323C121.102 42.4298 121.055 42.7414 121.08 42.967C121.105 43.1927 121.218 43.31 121.419 43.3188C121.62 43.3277 121.937 43.1839 122.37 42.8874C122.454 42.7846 122.575 42.6312 122.733 42.4272C122.883 42.2344 123.031 42.0318 123.178 41.8195C123.336 41.6154 123.476 41.4242 123.599 41.2456C123.722 41.0768 123.796 40.9707 123.819 40.9272C123.857 40.8514 123.918 40.7321 124.003 40.5694C124.088 40.4066 124.179 40.2228 124.277 40.0181C124.375 39.8133 124.477 39.598 124.581 39.3723C124.686 39.1465 124.782 38.9271 124.869 38.7141C124.967 38.5094 125.049 38.3271 125.114 38.1673C125.189 38.0061 125.239 37.8834 125.266 37.7994C125.33 37.6299 125.403 37.3892 125.484 37.0772C125.577 36.7735 125.658 36.4566 125.726 36.1267C125.797 35.8065 125.854 35.4982 125.898 35.202C125.942 34.9058 125.952 34.6797 125.928 34.5238ZM129.81 31.3641C129.804 31.3251 129.792 31.2471 129.774 31.1301C129.764 31.0019 129.756 30.9183 129.75 30.8793C129.952 30.1196 130.25 29.4 130.644 28.7204C131.038 28.0408 131.506 27.4196 132.048 26.8569C132.067 26.8539 132.096 26.8445 132.133 26.8287C132.179 26.8017 132.212 26.7867 132.231 26.7836C132.494 26.743 132.718 26.7683 132.901 26.8597C133.093 26.9398 133.252 27.0649 133.379 27.235C133.513 27.3939 133.617 27.5824 133.69 27.8005C133.763 28.0089 133.814 28.2155 133.846 28.4201C133.905 28.8003 133.879 29.2134 133.768 29.6596C133.656 30.0961 133.476 30.5131 133.228 30.9107C132.988 31.297 132.696 31.6316 132.35 31.9145C132.003 32.1877 131.625 32.3559 131.216 32.4192C130.807 32.4825 130.483 32.4227 130.245 32.2399C130.016 32.0459 129.871 31.7539 129.81 31.3641ZM130.924 31.0124C130.94 31.1196 130.995 31.1859 131.089 31.2113C131.183 31.2368 131.274 31.2427 131.361 31.2291C131.605 31.1915 131.829 31.092 132.034 30.9306C132.246 30.758 132.426 30.5607 132.571 30.3387C132.724 30.1054 132.836 29.8586 132.906 29.5984C132.975 29.3381 132.993 29.0959 132.958 28.8718C132.941 28.7645 132.914 28.6491 132.874 28.5254C132.844 28.3905 132.796 28.278 132.732 28.1881C132.667 28.0884 132.576 28.0176 132.46 27.9757C132.354 27.9323 132.211 27.9444 132.032 28.012C131.9 28.0623 131.763 28.2131 131.623 28.4644C131.482 28.7157 131.352 29.0052 131.233 29.333C131.122 29.6495 131.036 29.9671 130.976 30.2858C130.914 30.5947 130.896 30.8369 130.924 31.0124ZM134.902 31.0861C134.879 30.9399 134.891 30.7285 134.938 30.4518C134.984 30.1653 135.051 29.8556 135.139 29.5226C135.237 29.1881 135.349 28.8465 135.475 28.4978C135.61 28.1475 135.75 27.8265 135.895 27.5347C136.039 27.2429 136.182 27.0014 136.322 26.8101C136.462 26.6188 136.595 26.5134 136.722 26.4938C136.995 26.4516 137.152 26.5621 137.192 26.8252C137.21 26.9422 137.201 27.0434 137.164 27.1289C137.137 27.2129 137.1 27.2936 137.052 27.3708C137.004 27.4481 136.951 27.5261 136.894 27.6049C136.834 27.6739 136.787 27.756 136.752 27.8513C136.687 28.011 136.611 28.2274 136.523 28.5004C136.435 28.7734 136.347 29.0415 136.258 29.3048C136.177 29.5568 136.107 29.7821 136.048 29.9809C135.989 30.1796 135.961 30.2887 135.964 30.3082L135.994 30.4983C136.363 30.3713 136.704 30.154 137.015 29.8464C137.326 29.529 137.61 29.1708 137.867 28.7717C138.135 28.3711 138.38 27.9589 138.604 27.5351C138.836 27.1 139.054 26.7021 139.258 26.3413C139.46 25.9708 139.657 25.661 139.848 25.4119C140.039 25.1628 140.232 25.0232 140.427 24.9931C140.482 25.3537 140.46 25.6915 140.359 26.0065C140.258 26.3215 140.141 26.6339 140.01 26.9437C139.888 27.2519 139.777 27.5684 139.677 27.8931C139.576 28.2081 139.555 28.5508 139.612 28.9212C139.636 29.0771 139.75 29.2042 139.955 29.3022C140.168 29.3891 140.403 29.4575 140.66 29.5076C140.926 29.5464 141.179 29.5721 141.421 29.5847C141.662 29.5972 141.828 29.6016 141.917 29.5978L141.976 29.9779C141.753 30.0223 141.476 30.0701 141.144 30.1213C140.812 30.1628 140.474 30.175 140.132 30.158C139.79 30.141 139.471 30.0756 139.174 29.9619C138.885 29.8368 138.673 29.6252 138.537 29.3268C138.309 29.5317 138.095 29.7643 137.896 30.0246C137.697 30.2849 137.486 30.5321 137.262 30.7662C137.049 30.9988 136.816 31.2044 136.564 31.383C136.313 31.5617 136.026 31.6758 135.704 31.7255C135.509 31.7557 135.331 31.6984 135.169 31.5538C135.016 31.4077 134.927 31.2518 134.902 31.0861Z" fill="#274CCD"/>
</g>
<path d="M3.50459 11.7042C3.20237 11.9773 2.81006 12.1139 2.32767 12.1139C1.84528 12.1139 1.45007 11.9773 1.14204 11.7042C0.839822 11.4252 0.688712 11.0649 0.688712 10.6232C0.688712 10.1815 0.839822 9.82112 1.14204 9.54215C1.45007 9.26318 1.84528 9.12369 2.32767 9.12369C2.81006 9.12369 3.20237 9.26318 3.50459 9.54215C3.81262 9.82112 3.96663 10.1815 3.96663 10.6232C3.96663 11.0649 3.81262 11.4252 3.50459 11.7042ZM0.98512 22V13.2821H3.67023V22H0.98512ZM11.7168 8.25191H14.4194V22H12.1702L11.8476 21.1282C11.4931 21.5118 11.1211 21.8053 10.7317 22.0087C10.3423 22.2121 9.89189 22.3138 9.38044 22.3138C8.80506 22.3138 8.25874 22.2005 7.74148 21.9738C7.22422 21.7414 6.77089 21.4246 6.38149 21.0236C5.9979 20.6226 5.68987 20.1286 5.45739 19.5416C5.23073 18.9546 5.11739 18.324 5.11739 17.6498C5.11739 16.2665 5.49226 15.1419 6.242 14.276C6.99755 13.41 7.97395 12.977 9.17121 12.977C10.0256 12.977 10.8741 13.3373 11.7168 14.058V8.25191ZM9.87736 20.0559C10.5225 20.0559 11.1385 19.7246 11.7255 19.0621V15.9934C11.1734 15.4877 10.5632 15.2349 9.89479 15.2349C9.23223 15.2349 8.69754 15.4616 8.2907 15.9149C7.88968 16.3624 7.68917 16.9407 7.68917 17.6498C7.68917 18.3472 7.89549 18.9226 8.30814 19.3759C8.7266 19.8292 9.24967 20.0559 9.87736 20.0559ZM24.6454 17.2226C24.6454 17.397 24.6309 17.612 24.6019 17.8677C24.5786 18.1234 24.5525 18.292 24.5234 18.3734H18.5168C18.5516 18.8499 18.7957 19.2655 19.2491 19.62C19.7082 19.9687 20.2923 20.1431 21.0014 20.1431C21.6 20.1431 22.1434 20.0704 22.6316 19.9251C23.1256 19.774 23.669 19.5532 24.2619 19.2626L24.0526 21.5205C22.9716 22.0552 21.8557 22.3226 20.705 22.3226C19.746 22.3226 18.8945 22.1133 18.1506 21.6949C17.4125 21.2706 16.8488 20.7039 16.4594 19.9949C16.07 19.28 15.8753 18.4838 15.8753 17.6062C15.8753 16.2927 16.3053 15.1942 17.1655 14.3108C18.0315 13.4216 19.1299 12.977 20.4609 12.977C21.0304 12.977 21.5477 13.0555 22.0126 13.2124C22.4834 13.3635 22.8786 13.5727 23.1983 13.8401C23.5179 14.1016 23.7882 14.4154 24.009 14.7816C24.2299 15.1419 24.3897 15.5284 24.4885 15.9411C24.5931 16.3479 24.6454 16.7751 24.6454 17.2226ZM18.5429 16.8652H22.4834C22.4776 16.284 22.2887 15.8336 21.9167 15.5139C21.5506 15.1942 21.106 15.0344 20.5829 15.0344C19.9785 15.0344 19.4874 15.1971 19.1096 15.5226C18.7376 15.8481 18.5487 16.2956 18.5429 16.8652ZM31.4018 12.977C33.5638 12.977 34.6448 14.3835 34.6448 17.1964V22H31.9597V17.1441C31.9597 15.883 31.4832 15.2524 30.53 15.2524C30.1871 15.2524 29.8558 15.3454 29.5362 15.5313C29.2223 15.7173 28.9579 15.9527 28.7428 16.2375V22H26.0577V13.2821H28.3331L28.6295 14.1713C29.0305 13.811 29.4751 13.5233 29.9633 13.3083C30.4574 13.0874 30.9368 12.977 31.4018 12.977ZM35.6387 14.9995L39.3438 10.7888H39.8669V13.2821H42.3515V15.6447H39.8669V18.4082C39.8669 19.3788 40.2243 19.8641 40.9392 19.8641C41.5668 19.8641 42.1713 19.7363 42.7525 19.4805L42.6566 21.8692C42.4532 21.9622 42.2759 22.0349 42.1248 22.0872C41.9737 22.1395 41.7586 22.1889 41.4797 22.2354C41.2065 22.2819 40.9014 22.3051 40.5643 22.3051C39.3612 22.3051 38.4952 21.9884 37.9664 21.3549C37.4433 20.7214 37.1818 19.8263 37.1818 18.6698V15.6447H35.6387V14.9995ZM46.4837 11.7042C46.1815 11.9773 45.7892 12.1139 45.3068 12.1139C44.8244 12.1139 44.4292 11.9773 44.1212 11.7042C43.819 11.4252 43.6679 11.0649 43.6679 10.6232C43.6679 10.1815 43.819 9.82112 44.1212 9.54215C44.4292 9.26318 44.8244 9.12369 45.3068 9.12369C45.7892 9.12369 46.1815 9.26318 46.4837 9.54215C46.7918 9.82112 46.9458 10.1815 46.9458 10.6232C46.9458 11.0649 46.7918 11.4252 46.4837 11.7042ZM43.9643 22V13.2821H46.6494V22H43.9643ZM47.7042 14.9995L51.4093 10.7888H51.9324V13.2821H54.417V15.6447H51.9324V18.4082C51.9324 19.3788 52.2898 19.8641 53.0047 19.8641C53.6324 19.8641 54.2368 19.7363 54.818 19.4805L54.7221 21.8692C54.5187 21.9622 54.3414 22.0349 54.1903 22.0872C54.0392 22.1395 53.8242 22.1889 53.5452 22.2354C53.2721 22.2819 52.9669 22.3051 52.6298 22.3051C51.4268 22.3051 50.5608 21.9884 50.0319 21.3549C49.5088 20.7214 49.2473 19.8263 49.2473 18.6698V15.6447H47.7042V14.9995ZM61.0164 13.2821H63.7277L60.6154 22.1046L60.4323 22.6364C59.6361 24.996 58.4301 26.1759 56.8144 26.1759C56.7098 26.1759 56.6052 26.173 56.5006 26.1671C56.4018 26.1613 56.3146 26.1555 56.239 26.1497C56.1635 26.1497 56.0763 26.141 55.9775 26.1236C55.8845 26.1061 55.8148 26.0945 55.7683 26.0887C55.7276 26.0829 55.6578 26.0683 55.559 26.0451C55.466 26.0277 55.4079 26.016 55.3847 26.0102C55.3614 26.0044 55.2975 25.987 55.1929 25.9579C55.0941 25.9289 55.0389 25.9143 55.0272 25.9143L54.8529 23.6738C55.0563 23.7436 55.2016 23.793 55.2888 23.822C55.376 23.8511 55.5009 23.8772 55.6637 23.9005C55.8264 23.9296 56.0037 23.9441 56.1954 23.9441C56.8929 23.9441 57.4392 23.3774 57.8344 22.2441L57.9216 21.9738L54.696 13.2821H57.6426L59.3077 18.8267H59.3513L61.0164 13.2821ZM78.9927 22V8.25191H81.6778V22H78.9927ZM87.1962 12.9857C88.5795 12.9857 89.614 13.3199 90.2998 13.9883C90.9856 14.6508 91.3285 15.6272 91.3285 16.9175L91.3111 22H89.0531L88.7567 21.1456C88.3906 21.5002 87.9634 21.785 87.4752 22C86.987 22.2092 86.4959 22.3138 86.0019 22.3138C85.1359 22.3138 84.4559 22.0756 83.9619 21.599C83.4737 21.1166 83.2296 20.4511 83.2296 19.6026C83.2296 18.7773 83.5231 18.1089 84.1101 17.5975C84.6971 17.0802 85.4817 16.8216 86.4639 16.8216C87.08 16.8216 87.8036 16.8797 88.6347 16.9959V16.9611C88.6347 16.3683 88.4981 15.944 88.2249 15.6883C87.9518 15.4267 87.4578 15.296 86.7429 15.296C85.6444 15.296 84.5983 15.572 83.6045 16.1241L83.8311 13.7703C84.8366 13.2472 85.9583 12.9857 87.1962 12.9857ZM86.8911 20.3959C87.2049 20.3959 87.513 20.3262 87.8152 20.1867C88.1232 20.0414 88.3964 19.8351 88.6347 19.5677V18.3995C88.1116 18.2949 87.5914 18.2426 87.0742 18.2426C86.1501 18.2426 85.6822 18.6204 85.6706 19.3759C85.6706 19.684 85.7752 19.931 85.9844 20.1169C86.1937 20.3029 86.4959 20.3959 86.8911 20.3959ZM98.2941 12.977C99.4797 12.977 100.436 13.4071 101.162 14.2672C101.895 15.1274 102.261 16.2491 102.261 17.6323C102.261 19.0156 101.822 20.1431 100.944 21.0149C100.067 21.8809 98.945 22.3138 97.5792 22.3138C96.2425 22.3138 94.7953 22.0378 93.2377 21.4856V8.25191H95.9228V13.9796C96.6086 13.3112 97.399 12.977 98.2941 12.977ZM97.4049 20.1082C98.1023 20.1082 98.6573 19.8757 99.07 19.4108C99.4826 18.9458 99.6889 18.3559 99.6889 17.6411C99.6889 16.9262 99.4972 16.3479 99.1136 15.9062C98.7358 15.4587 98.204 15.2349 97.5182 15.2349C96.9254 15.2349 96.3936 15.4703 95.9228 15.9411V19.8467C96.4866 20.021 96.9806 20.1082 97.4049 20.1082Z" fill="white"/>
<rect width="5.95141" height="2.9757" transform="matrix(-0.707107 0.707107 0.707107 0.707107 72.6494 10.6953)" fill="white"/>
<rect x="70.5453" y="17.0078" width="5.95141" height="2.9757" transform="rotate(45 70.5453 17.0078)" fill="white"/>
<defs>
<filter id="filter0_d_22_241" x="111.524" y="0.909424" width="86.339" height="51.5393" filterUnits="userSpaceOnUse" color-interpolation-filters="sRGB">
<feFlood flood-opacity="0" result="BackgroundImageFix"/>
<feColorMatrix in="SourceAlpha" type="matrix" values="0 0 0 0 0 0 0 0 0 0 0 0 0 0 0 0 0 0 127 0" result="hardAlpha"/>
<feOffset dy="4"/>
<feGaussianBlur stdDeviation="2"/>
<feComposite in2="hardAlpha" operator="out"/>
<feColorMatrix type="matrix" values="0 0 0 0 0 0 0 0 0 0 0 0 0 0 0 0 0 0 0.25 0"/>
<feBlend mode="normal" in2="BackgroundImageFix" result="effect1_dropShadow_22_241"/>
<feBlend mode="normal" in="SourceGraphic" in2="effect1_dropShadow_22_241" result="shape"/>
</filter>
</defs>
</svg>
