<svg width="188" height="69" viewBox="0 0 188 69" fill="none" xmlns="http://www.w3.org/2000/svg">
<path d="M134.399 42.7989C135.109 39.1289 162.684 14.2123 187 2C136.93 8.59232 115.161 12.1275 55.1409 22.0416C72.0819 22.2232 79.7527 22.9732 85.7066 27.052C114.773 18.0761 132.834 15.0071 165.675 10.2314C141.654 18.7755 128.153 23.3452 104.544 34.5675C122.67 36.5708 126.76 39.8811 134.399 45.662" stroke="#1F283F" stroke-width="3"/>
<path d="M134.399 42.7989C135.109 39.1289 162.684 14.2123 187 2C136.93 8.59232 115.161 12.1275 55.1409 22.0416C72.0819 22.2232 79.7527 22.9732 85.7066 27.052C114.773 18.0761 132.834 15.0071 165.675 10.2314C141.654 18.7755 128.153 23.3452 104.544 34.5675C122.67 36.5708 126.76 39.8811 134.399 45.662" stroke="#0066FF" stroke-width="3"/>
<path d="M86.5775 27.324C90.0986 42.78 88.428 45.6839 86.5775 52.6479C96.237 45.1478 101.994 41.4082 114.521 37.8153" stroke="#1F283F" stroke-width="3"/>
<path d="M86.5775 27.324C90.0986 42.78 88.428 45.6839 86.5775 52.6479C96.237 45.1478 101.994 41.4082 114.521 37.8153" stroke="#0066FF" stroke-width="3"/>
<path d="M57.7606 35.1831C52.8704 35.1831 17.8826 48.5728 1 55.2676" stroke="#1F283F" stroke-width="3"/>
<path d="M57.7606 35.1831C52.8704 35.1831 17.8826 48.5728 1 55.2676" stroke="#0066FF" stroke-width="3"/>
<path d="M120.634 55.2676C117.925 55.2676 98.5476 62.8357 89.1972 66.6197" stroke="#1F283F" stroke-width="3"/>
<path d="M120.634 55.2676C117.925 55.2676 98.5476 62.8357 89.1972 66.6197" stroke="#0066FF" stroke-width="3"/>
</svg>
