<svg width="215" height="78" viewBox="0 0 215 78" fill="none" xmlns="http://www.w3.org/2000/svg">
<path d="M153.763 48.7213C154.576 44.5185 186.155 15.9851 214 2C156.661 9.54927 131.733 13.5976 63 24.9508C82.4002 25.1588 91.1845 26.0177 98.0027 30.6885C131.289 20.4097 151.972 16.8952 189.58 11.4262C162.072 21.2106 146.611 26.4437 119.574 39.2951C140.331 41.5891 145.015 45.38 153.763 52" stroke="black" stroke-width="3"/>
<path d="M99 31C103.032 48.6996 101.119 52.025 99 60C110.062 51.4112 116.654 47.1287 131 43.0143" stroke="black" stroke-width="3"/>
<path d="M66 40C60.4 40 20.3333 55.3333 1 63" stroke="black" stroke-width="3"/>
<path d="M138 63C134.898 63 112.708 71.6667 102 76" stroke="black" stroke-width="3"/>
</svg>
