<svg width="48" height="46" viewBox="0 0 48 46" fill="none" xmlns="http://www.w3.org/2000/svg">
<path d="M12.6217 12.0564C12.6217 12.0564 -0.821397 6.09704 2.53939 12.0564C5.90017 18.0157 4.77991 35.8937 2.53939 40.3632C0.298856 44.8327 42.8687 45.5776 44.7358 40.3632C46.6029 35.1488 46.2295 15.036 44.7358 12.0564C43.2422 9.0767 27.5585 12.0564 21.5838 12.0564C15.6091 12.0564 17.4762 2 21.5838 2C25.6914 2 26.8117 4.60721 31.2927 2" stroke="black" stroke-width="3"/>
<path d="M4 19C16.6 27.8276 31.8727 28.5632 46 19.7356" stroke="black" stroke-width="3"/>
<path d="M19.0772 24C19.0772 24 18.5949 28.1478 20.0418 30.2217C21.4887 32.2956 24.8649 32.7104 26.7942 30.6365C28.7235 28.5626 27.7588 24.4148 27.7588 24.4148" stroke="black" stroke-width="3"/>
</svg>
