<svg width="166" height="46" viewBox="0 0 166 46" fill="none" xmlns="http://www.w3.org/2000/svg">
<path d="M55.0319 13.64H53.4959V20H49.5599V3.368H55.0079C57.2799 3.368 58.9839 3.784 60.1199 4.616C61.2719 5.448 61.8479 6.72 61.8479 8.432C61.8479 9.504 61.5919 10.4 61.0799 11.12C60.5679 11.824 59.7599 12.424 58.6559 12.92L62.8799 20H58.4399L55.0319 13.64ZM53.4959 10.928H55.1519C56.0319 10.928 56.6879 10.728 57.1199 10.328C57.5679 9.928 57.7919 9.296 57.7919 8.432C57.7919 7.632 57.5519 7.048 57.0719 6.68C56.6079 6.312 55.8879 6.128 54.9119 6.128H53.4959V10.928ZM75.0524 20H71.7644L71.5964 18.392C70.6684 19.736 69.3804 20.408 67.7324 20.408C66.5644 20.408 65.6764 20.056 65.0684 19.352C64.4764 18.648 64.1804 17.664 64.1804 16.4V7.256H67.9724V15.92C67.9724 16.544 68.0684 16.984 68.2604 17.24C68.4684 17.48 68.7804 17.6 69.1964 17.6C69.9964 17.6 70.6844 17.104 71.2604 16.112V7.256H75.0524V20ZM82.5228 6.848C83.4348 6.848 84.2908 6.984 85.0908 7.256C85.8908 7.528 86.5948 7.912 87.2028 8.408L85.8108 10.544C84.7708 9.888 83.7228 9.56 82.6668 9.56C82.1708 9.56 81.7868 9.648 81.5148 9.824C81.2588 9.984 81.1308 10.216 81.1308 10.52C81.1308 10.76 81.1868 10.96 81.2988 11.12C81.4268 11.264 81.6748 11.416 82.0428 11.576C82.4108 11.736 82.9788 11.928 83.7468 12.152C85.0748 12.536 86.0588 13.04 86.6988 13.664C87.3548 14.272 87.6828 15.12 87.6828 16.208C87.6828 17.072 87.4348 17.824 86.9388 18.464C86.4428 19.088 85.7628 19.568 84.8988 19.904C84.0348 20.24 83.0748 20.408 82.0188 20.408C80.9468 20.408 79.9468 20.24 79.0188 19.904C78.1068 19.568 77.3308 19.104 76.6908 18.512L78.5388 16.448C79.6108 17.28 80.7388 17.696 81.9228 17.696C82.4988 17.696 82.9468 17.592 83.2668 17.384C83.6028 17.176 83.7708 16.88 83.7708 16.496C83.7708 16.192 83.7068 15.952 83.5788 15.776C83.4508 15.6 83.2028 15.44 82.8348 15.296C82.4668 15.136 81.8828 14.944 81.0828 14.72C79.8188 14.352 78.8748 13.84 78.2508 13.184C77.6268 12.528 77.3148 11.712 77.3148 10.736C77.3148 10 77.5228 9.344 77.9388 8.768C78.3708 8.176 78.9788 7.712 79.7628 7.376C80.5628 7.024 81.4828 6.848 82.5228 6.848ZM93.9603 6.848C94.8723 6.848 95.7283 6.984 96.5283 7.256C97.3283 7.528 98.0323 7.912 98.6403 8.408L97.2483 10.544C96.2083 9.888 95.1603 9.56 94.1043 9.56C93.6083 9.56 93.2243 9.648 92.9523 9.824C92.6963 9.984 92.5683 10.216 92.5683 10.52C92.5683 10.76 92.6243 10.96 92.7363 11.12C92.8643 11.264 93.1123 11.416 93.4803 11.576C93.8483 11.736 94.4163 11.928 95.1843 12.152C96.5123 12.536 97.4963 13.04 98.1363 13.664C98.7923 14.272 99.1203 15.12 99.1203 16.208C99.1203 17.072 98.8723 17.824 98.3763 18.464C97.8803 19.088 97.2003 19.568 96.3363 19.904C95.4723 20.24 94.5123 20.408 93.4563 20.408C92.3843 20.408 91.3843 20.24 90.4563 19.904C89.5443 19.568 88.7683 19.104 88.1283 18.512L89.9763 16.448C91.0483 17.28 92.1763 17.696 93.3603 17.696C93.9363 17.696 94.3843 17.592 94.7043 17.384C95.0403 17.176 95.2083 16.88 95.2083 16.496C95.2083 16.192 95.1443 15.952 95.0163 15.776C94.8883 15.6 94.6403 15.44 94.2723 15.296C93.9043 15.136 93.3203 14.944 92.5203 14.72C91.2563 14.352 90.3123 13.84 89.6883 13.184C89.0643 12.528 88.7523 11.712 88.7523 10.736C88.7523 10 88.9603 9.344 89.3763 8.768C89.8083 8.176 90.4163 7.712 91.2003 7.376C92.0003 7.024 92.9203 6.848 93.9603 6.848ZM104.866 7.256V20H101.074V7.256H104.866ZM102.946 0.535999C103.602 0.535999 104.138 0.743999 104.554 1.16C104.986 1.56 105.202 2.072 105.202 2.696C105.202 3.32 104.986 3.84 104.554 4.256C104.138 4.656 103.602 4.856 102.946 4.856C102.29 4.856 101.754 4.656 101.338 4.256C100.922 3.84 100.714 3.32 100.714 2.696C100.714 2.072 100.922 1.56 101.338 1.16C101.754 0.743999 102.29 0.535999 102.946 0.535999ZM117.975 16.304C117.975 16.784 118.039 17.136 118.167 17.36C118.311 17.584 118.535 17.752 118.839 17.864L118.047 20.336C117.263 20.272 116.623 20.104 116.127 19.832C115.631 19.544 115.247 19.096 114.975 18.488C114.143 19.768 112.863 20.408 111.135 20.408C109.871 20.408 108.863 20.04 108.111 19.304C107.359 18.568 106.983 17.608 106.983 16.424C106.983 15.032 107.495 13.968 108.519 13.232C109.543 12.496 111.023 12.128 112.959 12.128H114.255V11.576C114.255 10.824 114.095 10.312 113.775 10.04C113.455 9.752 112.895 9.608 112.095 9.608C111.679 9.608 111.175 9.672 110.583 9.8C109.991 9.912 109.383 10.072 108.759 10.28L107.895 7.784C108.695 7.48 109.511 7.248 110.343 7.088C111.191 6.928 111.975 6.848 112.695 6.848C114.519 6.848 115.855 7.224 116.703 7.976C117.551 8.728 117.975 9.856 117.975 11.36V16.304ZM112.239 17.696C113.103 17.696 113.775 17.288 114.255 16.472V14.216H113.319C112.455 14.216 111.807 14.368 111.375 14.672C110.959 14.976 110.751 15.448 110.751 16.088C110.751 16.6 110.879 17 111.135 17.288C111.407 17.56 111.775 17.696 112.239 17.696ZM128.46 6.848C129.564 6.848 130.428 7.184 131.052 7.856C131.676 8.528 131.988 9.472 131.988 10.688V20H128.196V11.336C128.196 10.696 128.092 10.256 127.884 10.016C127.692 9.76 127.396 9.632 126.996 9.632C126.228 9.632 125.492 10.184 124.788 11.288V20H120.996V7.256H124.308L124.572 8.768C125.116 8.128 125.7 7.648 126.324 7.328C126.964 7.008 127.676 6.848 128.46 6.848ZM54.9359 26.368C57.1279 26.368 58.8319 26.824 60.0479 27.736C61.2639 28.648 61.8719 30 61.8719 31.792C61.8719 33.664 61.2719 35.08 60.0719 36.04C58.8879 36.984 57.2959 37.456 55.2959 37.456H53.4959V43H49.5599V26.368H54.9359ZM54.9599 34.624C55.8879 34.624 56.5919 34.408 57.0719 33.976C57.5679 33.528 57.8159 32.8 57.8159 31.792C57.8159 30.048 56.8399 29.176 54.8879 29.176H53.4959V34.624H54.9599ZM68.672 29.848C70.624 29.848 72.152 30.448 73.256 31.648C74.36 32.832 74.912 34.496 74.912 36.64C74.912 38 74.656 39.192 74.144 40.216C73.648 41.224 72.928 42.008 71.984 42.568C71.056 43.128 69.952 43.408 68.672 43.408C66.736 43.408 65.208 42.816 64.088 41.632C62.984 40.432 62.432 38.76 62.432 36.616C62.432 35.256 62.68 34.072 63.176 33.064C63.688 32.04 64.408 31.248 65.336 30.688C66.28 30.128 67.392 29.848 68.672 29.848ZM68.672 32.632C67.904 32.632 67.328 32.96 66.944 33.616C66.56 34.256 66.368 35.256 66.368 36.616C66.368 38.008 66.552 39.024 66.92 39.664C67.304 40.304 67.888 40.624 68.672 40.624C69.44 40.624 70.016 40.304 70.4 39.664C70.784 39.008 70.976 38 70.976 36.64C70.976 35.248 70.784 34.232 70.4 33.592C70.032 32.952 69.456 32.632 68.672 32.632ZM84.0796 29.896C84.5436 29.896 84.9676 29.952 85.3516 30.064L84.7516 33.736C84.2716 33.624 83.8876 33.568 83.5996 33.568C82.8476 33.568 82.2716 33.832 81.8716 34.36C81.4876 34.872 81.1836 35.648 80.9596 36.688V43H77.1676V30.256H80.4796L80.7916 32.728C81.0796 31.848 81.5116 31.16 82.0876 30.664C82.6796 30.152 83.3436 29.896 84.0796 29.896ZM94.7924 42.4C94.3284 42.72 93.7844 42.968 93.1604 43.144C92.5524 43.32 91.9444 43.408 91.3364 43.408C88.5524 43.392 87.1604 41.856 87.1604 38.8V32.896H85.3604V30.256H87.1604V27.496L90.9524 27.064V30.256H93.8804L93.4724 32.896H90.9524V38.752C90.9524 39.344 91.0484 39.768 91.2404 40.024C91.4324 40.28 91.7364 40.408 92.1524 40.408C92.5844 40.408 93.0404 40.272 93.5204 40L94.7924 42.4ZM105.905 39.304C105.905 39.784 105.969 40.136 106.097 40.36C106.241 40.584 106.465 40.752 106.769 40.864L105.977 43.336C105.193 43.272 104.553 43.104 104.057 42.832C103.561 42.544 103.177 42.096 102.905 41.488C102.073 42.768 100.793 43.408 99.065 43.408C97.801 43.408 96.793 43.04 96.041 42.304C95.289 41.568 94.913 40.608 94.913 39.424C94.913 38.032 95.425 36.968 96.449 36.232C97.473 35.496 98.953 35.128 100.889 35.128H102.185V34.576C102.185 33.824 102.025 33.312 101.705 33.04C101.385 32.752 100.825 32.608 100.025 32.608C99.609 32.608 99.105 32.672 98.513 32.8C97.921 32.912 97.313 33.072 96.689 33.28L95.825 30.784C96.625 30.48 97.441 30.248 98.273 30.088C99.121 29.928 99.905 29.848 100.625 29.848C102.449 29.848 103.785 30.224 104.633 30.976C105.481 31.728 105.905 32.856 105.905 34.36V39.304ZM100.169 40.696C101.033 40.696 101.705 40.288 102.185 39.472V37.216H101.249C100.385 37.216 99.737 37.368 99.305 37.672C98.889 37.976 98.681 38.448 98.681 39.088C98.681 39.6 98.809 40 99.065 40.288C99.337 40.56 99.705 40.696 100.169 40.696ZM112.075 43.408C110.971 43.408 110.107 43.096 109.483 42.472C108.875 41.832 108.571 40.928 108.571 39.76V25.192L112.363 24.784V39.616C112.363 40.144 112.579 40.408 113.011 40.408C113.235 40.408 113.443 40.368 113.635 40.288L114.379 42.976C113.691 43.264 112.923 43.408 112.075 43.408Z" fill="#D9E3E8"/>
<path d="M4.00006 16H24.0001V36" stroke="#1F283F" stroke-width="8" stroke-linecap="round"/>
<path d="M4.00006 16H24.0001V36" stroke="#0066FF" stroke-width="8" stroke-linecap="round"/>
<rect x="30.0467" y="4" width="8" height="42.4925" rx="4" transform="rotate(45 30.0467 4)" fill="#F01F45"/>
<rect x="30.0467" y="4" width="8" height="42.4925" rx="4" transform="rotate(45 30.0467 4)" fill="#FF2149"/>
</svg>
