<svg width="135" height="46" viewBox="0 0 135 46" fill="none" xmlns="http://www.w3.org/2000/svg">
<path d="M55.032 13.64H53.496V20H49.56V3.368H55.008C57.28 3.368 58.984 3.784 60.12 4.616C61.272 5.448 61.848 6.72 61.848 8.432C61.848 9.504 61.592 10.4 61.08 11.12C60.568 11.824 59.76 12.424 58.656 12.92L62.88 20H58.44L55.032 13.64ZM53.496 10.928H55.152C56.032 10.928 56.688 10.728 57.12 10.328C57.568 9.928 57.792 9.296 57.792 8.432C57.792 7.632 57.552 7.048 57.072 6.68C56.608 6.312 55.888 6.128 54.912 6.128H53.496V10.928ZM75.0525 20H71.7645L71.5965 18.392C70.6685 19.736 69.3805 20.408 67.7325 20.408C66.5645 20.408 65.6765 20.056 65.0685 19.352C64.4765 18.648 64.1805 17.664 64.1805 16.4V7.256H67.9725V15.92C67.9725 16.544 68.0685 16.984 68.2605 17.24C68.4685 17.48 68.7805 17.6 69.1965 17.6C69.9965 17.6 70.6845 17.104 71.2605 16.112V7.256H75.0525V20ZM82.5229 6.848C83.4349 6.848 84.2909 6.984 85.0909 7.256C85.8909 7.528 86.5949 7.912 87.2029 8.408L85.8109 10.544C84.7709 9.888 83.7229 9.56 82.6669 9.56C82.1709 9.56 81.7869 9.648 81.5149 9.824C81.2589 9.984 81.1309 10.216 81.1309 10.52C81.1309 10.76 81.1869 10.96 81.2989 11.12C81.4269 11.264 81.6749 11.416 82.0429 11.576C82.4109 11.736 82.9789 11.928 83.7469 12.152C85.0749 12.536 86.0589 13.04 86.6989 13.664C87.3549 14.272 87.6829 15.12 87.6829 16.208C87.6829 17.072 87.4349 17.824 86.9389 18.464C86.4429 19.088 85.7629 19.568 84.8989 19.904C84.0349 20.24 83.0749 20.408 82.0189 20.408C80.9469 20.408 79.9469 20.24 79.0189 19.904C78.1069 19.568 77.3309 19.104 76.6909 18.512L78.5389 16.448C79.6109 17.28 80.7389 17.696 81.9229 17.696C82.4989 17.696 82.9469 17.592 83.2669 17.384C83.6029 17.176 83.7709 16.88 83.7709 16.496C83.7709 16.192 83.7069 15.952 83.5789 15.776C83.4509 15.6 83.2029 15.44 82.8349 15.296C82.4669 15.136 81.8829 14.944 81.0829 14.72C79.8189 14.352 78.8749 13.84 78.2509 13.184C77.6269 12.528 77.3149 11.712 77.3149 10.736C77.3149 10 77.5229 9.344 77.9389 8.768C78.3709 8.176 78.9789 7.712 79.7629 7.376C80.5629 7.024 81.4829 6.848 82.5229 6.848ZM93.9604 6.848C94.8724 6.848 95.7284 6.984 96.5284 7.256C97.3284 7.528 98.0324 7.912 98.6404 8.408L97.2484 10.544C96.2084 9.888 95.1604 9.56 94.1044 9.56C93.6084 9.56 93.2244 9.648 92.9524 9.824C92.6964 9.984 92.5684 10.216 92.5684 10.52C92.5684 10.76 92.6244 10.96 92.7364 11.12C92.8644 11.264 93.1124 11.416 93.4804 11.576C93.8484 11.736 94.4164 11.928 95.1844 12.152C96.5124 12.536 97.4964 13.04 98.1364 13.664C98.7924 14.272 99.1204 15.12 99.1204 16.208C99.1204 17.072 98.8724 17.824 98.3764 18.464C97.8804 19.088 97.2004 19.568 96.3364 19.904C95.4724 20.24 94.5124 20.408 93.4564 20.408C92.3844 20.408 91.3844 20.24 90.4564 19.904C89.5444 19.568 88.7684 19.104 88.1284 18.512L89.9764 16.448C91.0484 17.28 92.1764 17.696 93.3604 17.696C93.9364 17.696 94.3844 17.592 94.7044 17.384C95.0404 17.176 95.2084 16.88 95.2084 16.496C95.2084 16.192 95.1444 15.952 95.0164 15.776C94.8884 15.6 94.6404 15.44 94.2724 15.296C93.9044 15.136 93.3204 14.944 92.5204 14.72C91.2564 14.352 90.3124 13.84 89.6884 13.184C89.0644 12.528 88.7524 11.712 88.7524 10.736C88.7524 10 88.9604 9.344 89.3764 8.768C89.8084 8.176 90.4164 7.712 91.2004 7.376C92.0004 7.024 92.9204 6.848 93.9604 6.848ZM104.866 7.256V20H101.074V7.256H104.866ZM102.946 0.535999C103.602 0.535999 104.138 0.743999 104.554 1.16C104.986 1.56 105.202 2.072 105.202 2.696C105.202 3.32 104.986 3.84 104.554 4.256C104.138 4.656 103.602 4.856 102.946 4.856C102.29 4.856 101.754 4.656 101.338 4.256C100.922 3.84 100.714 3.32 100.714 2.696C100.714 2.072 100.922 1.56 101.338 1.16C101.754 0.743999 102.29 0.535999 102.946 0.535999ZM117.975 16.304C117.975 16.784 118.039 17.136 118.167 17.36C118.311 17.584 118.535 17.752 118.839 17.864L118.047 20.336C117.263 20.272 116.623 20.104 116.127 19.832C115.631 19.544 115.247 19.096 114.975 18.488C114.143 19.768 112.863 20.408 111.135 20.408C109.871 20.408 108.863 20.04 108.111 19.304C107.359 18.568 106.983 17.608 106.983 16.424C106.983 15.032 107.495 13.968 108.519 13.232C109.543 12.496 111.023 12.128 112.959 12.128H114.255V11.576C114.255 10.824 114.095 10.312 113.775 10.04C113.455 9.752 112.895 9.608 112.095 9.608C111.679 9.608 111.175 9.672 110.583 9.8C109.991 9.912 109.383 10.072 108.759 10.28L107.895 7.784C108.695 7.48 109.511 7.248 110.343 7.088C111.191 6.928 111.975 6.848 112.695 6.848C114.519 6.848 115.855 7.224 116.703 7.976C117.551 8.728 117.975 9.856 117.975 11.36V16.304ZM112.239 17.696C113.103 17.696 113.775 17.288 114.255 16.472V14.216H113.319C112.455 14.216 111.807 14.368 111.375 14.672C110.959 14.976 110.751 15.448 110.751 16.088C110.751 16.6 110.879 17 111.135 17.288C111.407 17.56 111.775 17.696 112.239 17.696ZM128.46 6.848C129.564 6.848 130.428 7.184 131.052 7.856C131.676 8.528 131.988 9.472 131.988 10.688V20H128.196V11.336C128.196 10.696 128.092 10.256 127.884 10.016C127.692 9.76 127.396 9.632 126.996 9.632C126.228 9.632 125.492 10.184 124.788 11.288V20H120.996V7.256H124.308L124.572 8.768C125.116 8.128 125.7 7.648 126.324 7.328C126.964 7.008 127.676 6.848 128.46 6.848ZM54.936 26.368C57.128 26.368 58.832 26.824 60.048 27.736C61.264 28.648 61.872 30 61.872 31.792C61.872 33.664 61.272 35.08 60.072 36.04C58.888 36.984 57.296 37.456 55.296 37.456H53.496V43H49.56V26.368H54.936ZM54.96 34.624C55.888 34.624 56.592 34.408 57.072 33.976C57.568 33.528 57.816 32.8 57.816 31.792C57.816 30.048 56.84 29.176 54.888 29.176H53.496V34.624H54.96ZM68.6721 29.848C70.6241 29.848 72.1521 30.448 73.2561 31.648C74.3601 32.832 74.9121 34.496 74.9121 36.64C74.9121 38 74.6561 39.192 74.1441 40.216C73.6481 41.224 72.9281 42.008 71.9841 42.568C71.0561 43.128 69.9521 43.408 68.6721 43.408C66.7361 43.408 65.2081 42.816 64.0881 41.632C62.9841 40.432 62.4321 38.76 62.4321 36.616C62.4321 35.256 62.6801 34.072 63.1761 33.064C63.6881 32.04 64.4081 31.248 65.3361 30.688C66.2801 30.128 67.3921 29.848 68.6721 29.848ZM68.6721 32.632C67.9041 32.632 67.3281 32.96 66.9441 33.616C66.5601 34.256 66.3681 35.256 66.3681 36.616C66.3681 38.008 66.5521 39.024 66.9201 39.664C67.3041 40.304 67.8881 40.624 68.6721 40.624C69.4401 40.624 70.0161 40.304 70.4001 39.664C70.7841 39.008 70.9761 38 70.9761 36.64C70.9761 35.248 70.7841 34.232 70.4001 33.592C70.0321 32.952 69.4561 32.632 68.6721 32.632ZM84.0797 29.896C84.5437 29.896 84.9677 29.952 85.3517 30.064L84.7517 33.736C84.2717 33.624 83.8877 33.568 83.5997 33.568C82.8477 33.568 82.2717 33.832 81.8717 34.36C81.4877 34.872 81.1837 35.648 80.9597 36.688V43H77.1677V30.256H80.4797L80.7917 32.728C81.0797 31.848 81.5117 31.16 82.0877 30.664C82.6797 30.152 83.3437 29.896 84.0797 29.896ZM94.7925 42.4C94.3285 42.72 93.7845 42.968 93.1605 43.144C92.5525 43.32 91.9445 43.408 91.3365 43.408C88.5525 43.392 87.1605 41.856 87.1605 38.8V32.896H85.3605V30.256H87.1605V27.496L90.9525 27.064V30.256H93.8805L93.4725 32.896H90.9525V38.752C90.9525 39.344 91.0485 39.768 91.2405 40.024C91.4325 40.28 91.7365 40.408 92.1525 40.408C92.5845 40.408 93.0405 40.272 93.5205 40L94.7925 42.4ZM105.905 39.304C105.905 39.784 105.969 40.136 106.097 40.36C106.241 40.584 106.465 40.752 106.769 40.864L105.977 43.336C105.193 43.272 104.553 43.104 104.057 42.832C103.561 42.544 103.177 42.096 102.905 41.488C102.073 42.768 100.793 43.408 99.0651 43.408C97.8011 43.408 96.7931 43.04 96.0411 42.304C95.2891 41.568 94.9131 40.608 94.9131 39.424C94.9131 38.032 95.4251 36.968 96.4491 36.232C97.4731 35.496 98.9531 35.128 100.889 35.128H102.185V34.576C102.185 33.824 102.025 33.312 101.705 33.04C101.385 32.752 100.825 32.608 100.025 32.608C99.6091 32.608 99.1051 32.672 98.5131 32.8C97.9211 32.912 97.3131 33.072 96.6891 33.28L95.8251 30.784C96.6251 30.48 97.4411 30.248 98.2731 30.088C99.1211 29.928 99.9051 29.848 100.625 29.848C102.449 29.848 103.785 30.224 104.633 30.976C105.481 31.728 105.905 32.856 105.905 34.36V39.304ZM100.169 40.696C101.033 40.696 101.705 40.288 102.185 39.472V37.216H101.249C100.385 37.216 99.7371 37.368 99.3051 37.672C98.8891 37.976 98.6811 38.448 98.6811 39.088C98.6811 39.6 98.8091 40 99.0651 40.288C99.3371 40.56 99.7051 40.696 100.169 40.696ZM112.075 43.408C110.971 43.408 110.107 43.096 109.483 42.472C108.875 41.832 108.571 40.928 108.571 39.76V25.192L112.363 24.784V39.616C112.363 40.144 112.579 40.408 113.011 40.408C113.235 40.408 113.443 40.368 113.635 40.288L114.379 42.976C113.691 43.264 112.923 43.408 112.075 43.408Z" fill="#1F283F"/>
<path d="M55.032 13.64H53.496V20H49.56V3.368H55.008C57.28 3.368 58.984 3.784 60.12 4.616C61.272 5.448 61.848 6.72 61.848 8.432C61.848 9.504 61.592 10.4 61.08 11.12C60.568 11.824 59.76 12.424 58.656 12.92L62.88 20H58.44L55.032 13.64ZM53.496 10.928H55.152C56.032 10.928 56.688 10.728 57.12 10.328C57.568 9.928 57.792 9.296 57.792 8.432C57.792 7.632 57.552 7.048 57.072 6.68C56.608 6.312 55.888 6.128 54.912 6.128H53.496V10.928ZM75.0525 20H71.7645L71.5965 18.392C70.6685 19.736 69.3805 20.408 67.7325 20.408C66.5645 20.408 65.6765 20.056 65.0685 19.352C64.4765 18.648 64.1805 17.664 64.1805 16.4V7.256H67.9725V15.92C67.9725 16.544 68.0685 16.984 68.2605 17.24C68.4685 17.48 68.7805 17.6 69.1965 17.6C69.9965 17.6 70.6845 17.104 71.2605 16.112V7.256H75.0525V20ZM82.5229 6.848C83.4349 6.848 84.2909 6.984 85.0909 7.256C85.8909 7.528 86.5949 7.912 87.2029 8.408L85.8109 10.544C84.7709 9.888 83.7229 9.56 82.6669 9.56C82.1709 9.56 81.7869 9.648 81.5149 9.824C81.2589 9.984 81.1309 10.216 81.1309 10.52C81.1309 10.76 81.1869 10.96 81.2989 11.12C81.4269 11.264 81.6749 11.416 82.0429 11.576C82.4109 11.736 82.9789 11.928 83.7469 12.152C85.0749 12.536 86.0589 13.04 86.6989 13.664C87.3549 14.272 87.6829 15.12 87.6829 16.208C87.6829 17.072 87.4349 17.824 86.9389 18.464C86.4429 19.088 85.7629 19.568 84.8989 19.904C84.0349 20.24 83.0749 20.408 82.0189 20.408C80.9469 20.408 79.9469 20.24 79.0189 19.904C78.1069 19.568 77.3309 19.104 76.6909 18.512L78.5389 16.448C79.6109 17.28 80.7389 17.696 81.9229 17.696C82.4989 17.696 82.9469 17.592 83.2669 17.384C83.6029 17.176 83.7709 16.88 83.7709 16.496C83.7709 16.192 83.7069 15.952 83.5789 15.776C83.4509 15.6 83.2029 15.44 82.8349 15.296C82.4669 15.136 81.8829 14.944 81.0829 14.72C79.8189 14.352 78.8749 13.84 78.2509 13.184C77.6269 12.528 77.3149 11.712 77.3149 10.736C77.3149 10 77.5229 9.344 77.9389 8.768C78.3709 8.176 78.9789 7.712 79.7629 7.376C80.5629 7.024 81.4829 6.848 82.5229 6.848ZM93.9604 6.848C94.8724 6.848 95.7284 6.984 96.5284 7.256C97.3284 7.528 98.0324 7.912 98.6404 8.408L97.2484 10.544C96.2084 9.888 95.1604 9.56 94.1044 9.56C93.6084 9.56 93.2244 9.648 92.9524 9.824C92.6964 9.984 92.5684 10.216 92.5684 10.52C92.5684 10.76 92.6244 10.96 92.7364 11.12C92.8644 11.264 93.1124 11.416 93.4804 11.576C93.8484 11.736 94.4164 11.928 95.1844 12.152C96.5124 12.536 97.4964 13.04 98.1364 13.664C98.7924 14.272 99.1204 15.12 99.1204 16.208C99.1204 17.072 98.8724 17.824 98.3764 18.464C97.8804 19.088 97.2004 19.568 96.3364 19.904C95.4724 20.24 94.5124 20.408 93.4564 20.408C92.3844 20.408 91.3844 20.24 90.4564 19.904C89.5444 19.568 88.7684 19.104 88.1284 18.512L89.9764 16.448C91.0484 17.28 92.1764 17.696 93.3604 17.696C93.9364 17.696 94.3844 17.592 94.7044 17.384C95.0404 17.176 95.2084 16.88 95.2084 16.496C95.2084 16.192 95.1444 15.952 95.0164 15.776C94.8884 15.6 94.6404 15.44 94.2724 15.296C93.9044 15.136 93.3204 14.944 92.5204 14.72C91.2564 14.352 90.3124 13.84 89.6884 13.184C89.0644 12.528 88.7524 11.712 88.7524 10.736C88.7524 10 88.9604 9.344 89.3764 8.768C89.8084 8.176 90.4164 7.712 91.2004 7.376C92.0004 7.024 92.9204 6.848 93.9604 6.848ZM104.866 7.256V20H101.074V7.256H104.866ZM102.946 0.535999C103.602 0.535999 104.138 0.743999 104.554 1.16C104.986 1.56 105.202 2.072 105.202 2.696C105.202 3.32 104.986 3.84 104.554 4.256C104.138 4.656 103.602 4.856 102.946 4.856C102.29 4.856 101.754 4.656 101.338 4.256C100.922 3.84 100.714 3.32 100.714 2.696C100.714 2.072 100.922 1.56 101.338 1.16C101.754 0.743999 102.29 0.535999 102.946 0.535999ZM117.975 16.304C117.975 16.784 118.039 17.136 118.167 17.36C118.311 17.584 118.535 17.752 118.839 17.864L118.047 20.336C117.263 20.272 116.623 20.104 116.127 19.832C115.631 19.544 115.247 19.096 114.975 18.488C114.143 19.768 112.863 20.408 111.135 20.408C109.871 20.408 108.863 20.04 108.111 19.304C107.359 18.568 106.983 17.608 106.983 16.424C106.983 15.032 107.495 13.968 108.519 13.232C109.543 12.496 111.023 12.128 112.959 12.128H114.255V11.576C114.255 10.824 114.095 10.312 113.775 10.04C113.455 9.752 112.895 9.608 112.095 9.608C111.679 9.608 111.175 9.672 110.583 9.8C109.991 9.912 109.383 10.072 108.759 10.28L107.895 7.784C108.695 7.48 109.511 7.248 110.343 7.088C111.191 6.928 111.975 6.848 112.695 6.848C114.519 6.848 115.855 7.224 116.703 7.976C117.551 8.728 117.975 9.856 117.975 11.36V16.304ZM112.239 17.696C113.103 17.696 113.775 17.288 114.255 16.472V14.216H113.319C112.455 14.216 111.807 14.368 111.375 14.672C110.959 14.976 110.751 15.448 110.751 16.088C110.751 16.6 110.879 17 111.135 17.288C111.407 17.56 111.775 17.696 112.239 17.696ZM128.46 6.848C129.564 6.848 130.428 7.184 131.052 7.856C131.676 8.528 131.988 9.472 131.988 10.688V20H128.196V11.336C128.196 10.696 128.092 10.256 127.884 10.016C127.692 9.76 127.396 9.632 126.996 9.632C126.228 9.632 125.492 10.184 124.788 11.288V20H120.996V7.256H124.308L124.572 8.768C125.116 8.128 125.7 7.648 126.324 7.328C126.964 7.008 127.676 6.848 128.46 6.848ZM54.936 26.368C57.128 26.368 58.832 26.824 60.048 27.736C61.264 28.648 61.872 30 61.872 31.792C61.872 33.664 61.272 35.08 60.072 36.04C58.888 36.984 57.296 37.456 55.296 37.456H53.496V43H49.56V26.368H54.936ZM54.96 34.624C55.888 34.624 56.592 34.408 57.072 33.976C57.568 33.528 57.816 32.8 57.816 31.792C57.816 30.048 56.84 29.176 54.888 29.176H53.496V34.624H54.96ZM68.6721 29.848C70.6241 29.848 72.1521 30.448 73.2561 31.648C74.3601 32.832 74.9121 34.496 74.9121 36.64C74.9121 38 74.6561 39.192 74.1441 40.216C73.6481 41.224 72.9281 42.008 71.9841 42.568C71.0561 43.128 69.9521 43.408 68.6721 43.408C66.7361 43.408 65.2081 42.816 64.0881 41.632C62.9841 40.432 62.4321 38.76 62.4321 36.616C62.4321 35.256 62.6801 34.072 63.1761 33.064C63.6881 32.04 64.4081 31.248 65.3361 30.688C66.2801 30.128 67.3921 29.848 68.6721 29.848ZM68.6721 32.632C67.9041 32.632 67.3281 32.96 66.9441 33.616C66.5601 34.256 66.3681 35.256 66.3681 36.616C66.3681 38.008 66.5521 39.024 66.9201 39.664C67.3041 40.304 67.8881 40.624 68.6721 40.624C69.4401 40.624 70.0161 40.304 70.4001 39.664C70.7841 39.008 70.9761 38 70.9761 36.64C70.9761 35.248 70.7841 34.232 70.4001 33.592C70.0321 32.952 69.4561 32.632 68.6721 32.632ZM84.0797 29.896C84.5437 29.896 84.9677 29.952 85.3517 30.064L84.7517 33.736C84.2717 33.624 83.8877 33.568 83.5997 33.568C82.8477 33.568 82.2717 33.832 81.8717 34.36C81.4877 34.872 81.1837 35.648 80.9597 36.688V43H77.1677V30.256H80.4797L80.7917 32.728C81.0797 31.848 81.5117 31.16 82.0877 30.664C82.6797 30.152 83.3437 29.896 84.0797 29.896ZM94.7925 42.4C94.3285 42.72 93.7845 42.968 93.1605 43.144C92.5525 43.32 91.9445 43.408 91.3365 43.408C88.5525 43.392 87.1605 41.856 87.1605 38.8V32.896H85.3605V30.256H87.1605V27.496L90.9525 27.064V30.256H93.8805L93.4725 32.896H90.9525V38.752C90.9525 39.344 91.0485 39.768 91.2405 40.024C91.4325 40.28 91.7365 40.408 92.1525 40.408C92.5845 40.408 93.0405 40.272 93.5205 40L94.7925 42.4ZM105.905 39.304C105.905 39.784 105.969 40.136 106.097 40.36C106.241 40.584 106.465 40.752 106.769 40.864L105.977 43.336C105.193 43.272 104.553 43.104 104.057 42.832C103.561 42.544 103.177 42.096 102.905 41.488C102.073 42.768 100.793 43.408 99.0651 43.408C97.8011 43.408 96.7931 43.04 96.0411 42.304C95.2891 41.568 94.9131 40.608 94.9131 39.424C94.9131 38.032 95.4251 36.968 96.4491 36.232C97.4731 35.496 98.9531 35.128 100.889 35.128H102.185V34.576C102.185 33.824 102.025 33.312 101.705 33.04C101.385 32.752 100.825 32.608 100.025 32.608C99.6091 32.608 99.1051 32.672 98.5131 32.8C97.9211 32.912 97.3131 33.072 96.6891 33.28L95.8251 30.784C96.6251 30.48 97.4411 30.248 98.2731 30.088C99.1211 29.928 99.9051 29.848 100.625 29.848C102.449 29.848 103.785 30.224 104.633 30.976C105.481 31.728 105.905 32.856 105.905 34.36V39.304ZM100.169 40.696C101.033 40.696 101.705 40.288 102.185 39.472V37.216H101.249C100.385 37.216 99.7371 37.368 99.3051 37.672C98.8891 37.976 98.6811 38.448 98.6811 39.088C98.6811 39.6 98.8091 40 99.0651 40.288C99.3371 40.56 99.7051 40.696 100.169 40.696ZM112.075 43.408C110.971 43.408 110.107 43.096 109.483 42.472C108.875 41.832 108.571 40.928 108.571 39.76V25.192L112.363 24.784V39.616C112.363 40.144 112.579 40.408 113.011 40.408C113.235 40.408 113.443 40.368 113.635 40.288L114.379 42.976C113.691 43.264 112.923 43.408 112.075 43.408Z" fill="black"/>
<path d="M4.00012 16H24.0001V36" stroke="#1F283F" stroke-width="8" stroke-linecap="round"/>
<path d="M4.00012 16H24.0001V36" stroke="#0066FF" stroke-width="8" stroke-linecap="round"/>
<g style="mix-blend-mode:multiply">
<rect x="30.0468" y="4" width="8" height="42.4925" rx="4" transform="rotate(45 30.0468 4)" fill="#F01F45"/>
<rect x="30.0468" y="4" width="8" height="42.4925" rx="4" transform="rotate(45 30.0468 4)" fill="#FF2149"/>
</g>
</svg>
